<svg id="Layer_1" data-name="Layer 1" xmlns="http://www.w3.org/2000/svg" viewBox="0 0 540.6 540.6"><defs><style>.cls-1,.cls-2{fill:none;stroke:#fff;stroke-width:2px;}.cls-1,.cls-2,.cls-3,.cls-4{stroke-miterlimit:10;}.cls-1{opacity:0.03;isolation:isolate;}.cls-3,.cls-4{fill:#fff;stroke:#000;}.cls-3{stroke-width:5px;}.cls-4{stroke-width:8px;}</style></defs><title>Hooplja_logo</title><path class="cls-1" d="M144.16,35.7" transform="translate(-141.93 -27.35)"/><ellipse class="cls-2" cx="221.98" cy="22.68" rx="1.84" ry="8.98"/><circle class="cls-3" cx="270.3" cy="270.3" r="267.8"/><circle class="cls-4" cx="270.3" cy="270.3" r="66.95"/><path d="M616.66,252.72V358.05H603.12V264.17h-49v93.88H540.63V252.72Z" transform="translate(-141.93 -27.35)"/><path d="M268.07,356.42l-13.39-23.21c-5.51-8.93-8.93-14.73-12.2-20.83h-.3c-3,6.1-6,11.75-11.46,21l-12.64,23.06H202.45l32.14-53.27-31-52.07h15.77l13.84,24.7c3.87,6.84,6.85,12.2,9.67,17.85h.45c3-6.25,5.65-11.16,9.52-17.85l14.43-24.7h15.62l-32,51.18,32.73,54H268.07Z" transform="translate(-141.93 -27.35)"/><path d="M451.36,82.66V188H437.67V94.12H402.86V126c0,22.76-.89,48.2-15.77,58.32A31.16,31.16,0,0,1,371,189.34l-1.78-10.86a24.15,24.15,0,0,0,11.15-5.66c8.48-8.33,9.23-28.71,9.23-45.67V82.81h61.74Z" transform="translate(-141.93 -27.35)"/><path d="M372.66,511.74a69.87,69.87,0,0,0,4.16-9.52c4.47-12.05,7.29-26.78,15.92-35.26a22.74,22.74,0,0,1,8.78-5.36v-.44c-12.94-2.23-23.21-11.61-23.21-25.89,0-9.22,3.72-16.51,9.67-21.42,6.55-5.36,16.81-8.19,30.2-8.19a127.25,127.25,0,0,1,25.15,2.24V511.74H429.79V466.07H419.67c-6.54,0-11.45,1.34-15.17,5.21-7.15,7.29-10.12,22.76-13.84,32.73a56.26,56.26,0,0,1-3.42,7.58H372.66Zm57-94.32a66.5,66.5,0,0,0-12.8-1.19c-13.39,0-24.84,5.2-24.84,19.64,0,12.64,11.31,19.93,26,19.93,4.46,0,8.92,0,11.6-.15V417.42Z" transform="translate(-141.93 -27.35)"/></svg>